<?xml version="1.0" encoding="UTF-8" standalone="no"?>
<!-- Created with Inkscape (http://www.inkscape.org/) -->

<svg
   width="41.257393mm"
   height="53.148003mm"
   viewBox="0 0 41.257393 53.148004"
   version="1.1"
   id="svg5"
   xmlns="http://www.w3.org/2000/svg"
   xmlns:svg="http://www.w3.org/2000/svg">
  <defs
     id="defs2" />
  <g
     id="delay_knob"
     transform="translate(-6.3605783,-74.397762)">
    <title
       id="title295">delay_knob</title>
    <text
       xml:space="preserve"
       style="font-style:normal;font-variant:normal;font-weight:bold;font-stretch:normal;font-size:6.35px;line-height:1.2em;font-family:Arial;-inkscape-font-specification:'Arial Bold';text-align:center;text-decoration-color:#000000;letter-spacing:0px;text-anchor:middle;fill:#2b1100;stroke:none;stroke-width:3.175;stroke-linecap:round;stroke-linejoin:round;stroke-dasharray:none;stop-color:#000000"
       x="26.810669"
       y="126.20941"
       id="delay_title"><title
         id="title307">delay_title</title><tspan
         id="tspan1573"
         style="font-style:normal;font-variant:normal;font-weight:bold;font-stretch:normal;font-size:6.35px;font-family:Arial;-inkscape-font-specification:'Arial Bold';fill:#2b1100;stroke-width:3.175"
         x="26.810669"
         y="126.20941">Delay</tspan></text>
    <path
       id="delay_underlay"
       style="fill:#502d16;stroke-width:10.5833;stroke-linecap:round;stroke-linejoin:round;stop-color:#000000"
       d="m 41.988715,89.827286 a 15.875,15.874998 0 0 1 -9.773943,20.188554 15.875,15.874998 0 0 1 -20.206429,-9.73693 15.875,15.874998 0 0 1 9.699888,-20.22424 15.875,15.874998 0 0 1 20.241978,9.662811">
      <title
         id="title305">delay_underlay</title>
    </path>
    <path
       style="color:#000000;fill:#502d16;stroke-linecap:round;stroke-linejoin:round"
       d="M 27.154297,74.398437 C 21.97424,74.356723 16.779922,76.248267 12.753906,80.083984 4.701874,87.755419 4.1883073,100.4759 11.595703,108.77148 a 1.5875,1.5875 0 0 0 2.240235,0.12696 1.5875,1.5875 0 0 0 0.126953,-2.24219 C 7.6742037,99.613518 8.1073933,88.895661 14.943359,82.382812 c 6.835966,-6.512848 17.562776,-6.426781 24.292969,0.195313 6.730193,6.622094 6.991135,17.346568 0.589844,24.287105 a 1.5875,1.5875 0 0 0 0.08984,2.24219 1.5875,1.5875 0 0 0 2.24414,-0.0898 C 49.700184,100.84241 49.39033,88.114607 41.462887,80.314493 37.499165,76.414436 32.33435,74.440192 27.154293,74.398477 Z"
       id="delay_gradient_arc">
      <title
         id="title303">delay_gradient_arc</title>
    </path>
    <path
       id="delay_value_canva"
       style="fill:#e9c6af;stroke-width:3.175;stroke-linecap:round;stroke-linejoin:round;stop-color:#000000"
       d="m 14.288953,114.14925 h 25.399999 v 6.35 H 14.288953 Z">
      <title
         id="title301">delay_value_canva</title>
    </path>
    <path
       id="delay_overlay"
       style="fill:#d38d5f;stroke-width:10.5833;stroke-linecap:round;stroke-linejoin:round;stop-color:#000000"
       d="M 38.988763,90.866954 A 12.700001,12.7 0 0 1 31.169609,107.0178 12.700001,12.7 0 0 1 15.004464,99.228251 12.700001,12.7 0 0 1 22.764375,83.04886 12.700001,12.7 0 0 1 38.957959,90.77911">
      <title
         id="title299">delay_overlay</title>
    </path>
    <path
       id="delay_pointer"
       style="fill:#502d16;stroke-width:10.5833;stroke-linecap:round;stroke-linejoin:round;stop-color:#000000"
       d="m 28.488929,85.393664 a 1.5875,1.5874999 0 0 1 -0.977394,2.018855 1.5875,1.5874999 0 0 1 -2.020643,-0.973693 1.5875,1.5874999 0 0 1 0.969988,-2.022424 1.5875,1.5874999 0 0 1 2.024198,0.966281">
      <title
         id="title297">delay_pointer</title>
    </path>
  </g>
</svg>
